# xmcd
#
# Track frame offsets:
#	150
#	24188
#	42493
#	63033
#	82660
#	104722
#	129348
#	149741
#	162517
#
# Disc length: 2422 seconds
#
# Revision: 0
# Processed by: cddbd v1.5.2PL0 Copyright (c) Steve Scherf et al.
# Submitted via: EasyCDDAExtractor 11.5.3.1
#
DISCID=73097409
DTITLE=Frankie Lee - Stillwater
DYEAR=2019
DGENRE=Country
TTITLE0=Speakeasy
TTITLE1=Only She Knows
TTITLE2=Downtown Lights
TTITLE3=In the Blue
TTITLE4=(I Don't Wanna Know) John
TTITLE5=Blinds
TTITLE6=One Wild Bird
TTITLE7=Broken Arrow
TTITLE8=Ventura
EXTD=
EXTT0=
EXTT1=
EXTT2=
EXTT3=
EXTT4=
EXTT5=
EXTT6=
EXTT7=
EXTT8=
PLAYORDER=
